# xmcd CD database file
#
# Track frame offsets:
#	150
#	34090
#	57722
#	90438
#	142432
#	181127
#	200694
#	247654
#	275447
#	304504
#	332881
#
# Disc length: 4625 seconds
#
# Revision: 0
# Processed by: cddbd v1.5.2PL0 Copyright (c) Steve Scherf et al.
# Submitted via: CDex 1.51
#
DISCID=9f120f0b
DTITLE=FuzzNoir - Uarrgh 2
DYEAR=2005
DGENRE=Jazz
TTITLE0=Chat
TTITLE1=Panaroia
TTITLE2=VideoClerks
TTITLE3=Samba Ratte
TTITLE4=Extended Maxi
TTITLE5=Tahmine
TTITLE6=Uarrgh 2
TTITLE7=Tell Me The Way To The Next Whiskey Bar
TTITLE8=If There's A Doubt, There's No Doubt
TTITLE9=Choral Nr.1
TTITLE10=Interlude
EXTD=YEAR: 2005
EXTT0=
EXTT1=
EXTT2=
EXTT3=
EXTT4=
EXTT5=
EXTT6=
EXTT7=
EXTT8=
EXTT9=
EXTT10=
PLAYORDER=
